<mxfile host="app.diagrams.net" modified="2024-04-03T19:06:01.331Z" agent="Mozilla/5.0 (Windows NT 10.0; Win64; x64) AppleWebKit/537.36 (KHTML, like Gecko) Chrome/123.0.0.0 Safari/537.36" etag="1cKJRzwrKoOotuFoh3Du" version="24.2.2" type="github">
  <diagram name="Page-1" id="ol75jI7GrQb2MkhRdcl-">
    <mxGraphModel dx="2982" dy="1402" grid="1" gridSize="10" guides="1" tooltips="1" connect="1" arrows="1" fold="1" page="1" pageScale="1" pageWidth="827" pageHeight="1169" math="0" shadow="0">
      <root>
        <mxCell id="0" />
        <mxCell id="1" parent="0" />
        <mxCell id="BZHRP5bjnA7c6UVSAn7--2" style="edgeStyle=orthogonalEdgeStyle;rounded=0;orthogonalLoop=1;jettySize=auto;html=1;" parent="1" source="BZHRP5bjnA7c6UVSAn7--1" edge="1">
          <mxGeometry relative="1" as="geometry">
            <mxPoint x="414" y="130.0000000000001" as="targetPoint" />
          </mxGeometry>
        </mxCell>
        <mxCell id="BZHRP5bjnA7c6UVSAn7--1" value="Start" style="rounded=0;whiteSpace=wrap;html=1;" parent="1" vertex="1">
          <mxGeometry x="354" y="20" width="120" height="60" as="geometry" />
        </mxCell>
        <mxCell id="BZHRP5bjnA7c6UVSAn7--7" style="edgeStyle=orthogonalEdgeStyle;rounded=0;orthogonalLoop=1;jettySize=auto;html=1;" parent="1" source="BZHRP5bjnA7c6UVSAn7--3" edge="1">
          <mxGeometry relative="1" as="geometry">
            <mxPoint x="414" y="260" as="targetPoint" />
          </mxGeometry>
        </mxCell>
        <mxCell id="BZHRP5bjnA7c6UVSAn7--3" value="Podaj wartosc dla zmiennej n" style="strokeWidth=2;html=1;shape=mxgraph.flowchart.decision;whiteSpace=wrap;" parent="1" vertex="1">
          <mxGeometry x="344" y="130" width="140" height="80" as="geometry" />
        </mxCell>
        <mxCell id="BZHRP5bjnA7c6UVSAn7--4" style="edgeStyle=orthogonalEdgeStyle;rounded=0;orthogonalLoop=1;jettySize=auto;html=1;exitX=0.5;exitY=1;exitDx=0;exitDy=0;exitPerimeter=0;" parent="1" source="BZHRP5bjnA7c6UVSAn7--3" target="BZHRP5bjnA7c6UVSAn7--3" edge="1">
          <mxGeometry relative="1" as="geometry" />
        </mxCell>
        <mxCell id="BZHRP5bjnA7c6UVSAn7--9" style="edgeStyle=orthogonalEdgeStyle;rounded=0;orthogonalLoop=1;jettySize=auto;html=1;" parent="1" source="BZHRP5bjnA7c6UVSAn7--8" edge="1">
          <mxGeometry relative="1" as="geometry">
            <mxPoint x="414" y="350" as="targetPoint" />
          </mxGeometry>
        </mxCell>
        <mxCell id="BZHRP5bjnA7c6UVSAn7--8" value="i = 2" style="rounded=0;whiteSpace=wrap;html=1;" parent="1" vertex="1">
          <mxGeometry x="369" y="260" width="90" height="50" as="geometry" />
        </mxCell>
        <mxCell id="BZHRP5bjnA7c6UVSAn7--13" style="edgeStyle=orthogonalEdgeStyle;rounded=0;orthogonalLoop=1;jettySize=auto;html=1;" parent="1" source="BZHRP5bjnA7c6UVSAn7--10" edge="1">
          <mxGeometry relative="1" as="geometry">
            <mxPoint x="300" y="440" as="targetPoint" />
          </mxGeometry>
        </mxCell>
        <mxCell id="BZHRP5bjnA7c6UVSAn7--17" style="edgeStyle=orthogonalEdgeStyle;rounded=0;orthogonalLoop=1;jettySize=auto;html=1;" parent="1" source="BZHRP5bjnA7c6UVSAn7--10" edge="1">
          <mxGeometry relative="1" as="geometry">
            <mxPoint x="414" y="470" as="targetPoint" />
          </mxGeometry>
        </mxCell>
        <mxCell id="BZHRP5bjnA7c6UVSAn7--10" value="i &amp;lt; n" style="strokeWidth=2;html=1;shape=mxgraph.flowchart.decision;whiteSpace=wrap;" parent="1" vertex="1">
          <mxGeometry x="362" y="350" width="104" height="70" as="geometry" />
        </mxCell>
        <mxCell id="BZHRP5bjnA7c6UVSAn7--14" value="False" style="text;html=1;align=center;verticalAlign=middle;resizable=0;points=[];autosize=1;strokeColor=none;fillColor=none;" parent="1" vertex="1">
          <mxGeometry x="304" y="358" width="50" height="30" as="geometry" />
        </mxCell>
        <mxCell id="BZHRP5bjnA7c6UVSAn7--15" value="Stop" style="rounded=0;whiteSpace=wrap;html=1;" parent="1" vertex="1">
          <mxGeometry x="270" y="440" width="60" height="40" as="geometry" />
        </mxCell>
        <mxCell id="BZHRP5bjnA7c6UVSAn7--18" value="True" style="text;html=1;align=center;verticalAlign=middle;resizable=0;points=[];autosize=1;strokeColor=none;fillColor=none;" parent="1" vertex="1">
          <mxGeometry x="364" y="420" width="50" height="30" as="geometry" />
        </mxCell>
        <mxCell id="BZHRP5bjnA7c6UVSAn7--21" style="edgeStyle=orthogonalEdgeStyle;rounded=0;orthogonalLoop=1;jettySize=auto;html=1;" parent="1" source="BZHRP5bjnA7c6UVSAn7--19" edge="1">
          <mxGeometry relative="1" as="geometry">
            <mxPoint x="610" y="450" as="targetPoint" />
          </mxGeometry>
        </mxCell>
        <mxCell id="BZHRP5bjnA7c6UVSAn7--26" style="edgeStyle=orthogonalEdgeStyle;rounded=0;orthogonalLoop=1;jettySize=auto;html=1;" parent="1" source="BZHRP5bjnA7c6UVSAn7--19" edge="1">
          <mxGeometry relative="1" as="geometry">
            <mxPoint x="414" y="600" as="targetPoint" />
          </mxGeometry>
        </mxCell>
        <mxCell id="BZHRP5bjnA7c6UVSAn7--19" value="fibo[i] = fibo[i-1] + fibo[i-2]" style="strokeWidth=2;html=1;shape=mxgraph.flowchart.decision;whiteSpace=wrap;" parent="1" vertex="1">
          <mxGeometry x="334" y="470" width="160" height="80" as="geometry" />
        </mxCell>
        <mxCell id="BZHRP5bjnA7c6UVSAn7--24" value="i++" style="rounded=0;whiteSpace=wrap;html=1;" parent="1" vertex="1">
          <mxGeometry x="570" y="400" width="90" height="50" as="geometry" />
        </mxCell>
        <mxCell id="BZHRP5bjnA7c6UVSAn7--25" style="edgeStyle=orthogonalEdgeStyle;rounded=0;orthogonalLoop=1;jettySize=auto;html=1;exitX=0;exitY=0;exitDx=0;exitDy=0;entryX=1;entryY=0.5;entryDx=0;entryDy=0;entryPerimeter=0;" parent="1" source="BZHRP5bjnA7c6UVSAn7--24" target="BZHRP5bjnA7c6UVSAn7--10" edge="1">
          <mxGeometry relative="1" as="geometry">
            <Array as="points">
              <mxPoint x="610" y="400" />
              <mxPoint x="610" y="385" />
            </Array>
          </mxGeometry>
        </mxCell>
        <mxCell id="BZHRP5bjnA7c6UVSAn7--27" value="i = 0" style="rounded=0;whiteSpace=wrap;html=1;" parent="1" vertex="1">
          <mxGeometry x="369" y="600" width="90" height="50" as="geometry" />
        </mxCell>
        <mxCell id="BZHRP5bjnA7c6UVSAn7--47" style="edgeStyle=orthogonalEdgeStyle;rounded=0;orthogonalLoop=1;jettySize=auto;html=1;" parent="1" source="BZHRP5bjnA7c6UVSAn7--28" edge="1">
          <mxGeometry relative="1" as="geometry">
            <mxPoint x="290" y="760" as="targetPoint" />
          </mxGeometry>
        </mxCell>
        <mxCell id="BZHRP5bjnA7c6UVSAn7--50" style="edgeStyle=orthogonalEdgeStyle;rounded=0;orthogonalLoop=1;jettySize=auto;html=1;" parent="1" source="BZHRP5bjnA7c6UVSAn7--28" edge="1">
          <mxGeometry relative="1" as="geometry">
            <mxPoint x="414" y="800" as="targetPoint" />
          </mxGeometry>
        </mxCell>
        <mxCell id="BZHRP5bjnA7c6UVSAn7--28" value="i &amp;lt; n" style="strokeWidth=2;html=1;shape=mxgraph.flowchart.decision;whiteSpace=wrap;" parent="1" vertex="1">
          <mxGeometry x="362" y="680" width="104" height="70" as="geometry" />
        </mxCell>
        <mxCell id="BZHRP5bjnA7c6UVSAn7--29" style="edgeStyle=orthogonalEdgeStyle;rounded=0;orthogonalLoop=1;jettySize=auto;html=1;entryX=0.5;entryY=0;entryDx=0;entryDy=0;entryPerimeter=0;" parent="1" source="BZHRP5bjnA7c6UVSAn7--27" target="BZHRP5bjnA7c6UVSAn7--28" edge="1">
          <mxGeometry relative="1" as="geometry" />
        </mxCell>
        <mxCell id="BZHRP5bjnA7c6UVSAn7--48" value="Stop" style="rounded=0;whiteSpace=wrap;html=1;" parent="1" vertex="1">
          <mxGeometry x="260" y="760" width="60" height="40" as="geometry" />
        </mxCell>
        <mxCell id="BZHRP5bjnA7c6UVSAn7--49" value="True" style="text;html=1;align=center;verticalAlign=middle;resizable=0;points=[];autosize=1;strokeColor=none;fillColor=none;" parent="1" vertex="1">
          <mxGeometry x="344" y="740" width="50" height="30" as="geometry" />
        </mxCell>
        <mxCell id="BZHRP5bjnA7c6UVSAn7--52" style="edgeStyle=orthogonalEdgeStyle;rounded=0;orthogonalLoop=1;jettySize=auto;html=1;" parent="1" source="BZHRP5bjnA7c6UVSAn7--51" edge="1">
          <mxGeometry relative="1" as="geometry">
            <mxPoint x="560" y="780" as="targetPoint" />
          </mxGeometry>
        </mxCell>
        <mxCell id="BZHRP5bjnA7c6UVSAn7--51" value="print&lt;br&gt;&amp;nbsp;&quot;Wyraz numer&quot; &amp;lt;&amp;lt; i +1 &amp;lt;&amp;lt; fibo [i]" style="strokeWidth=2;html=1;shape=mxgraph.flowchart.decision;whiteSpace=wrap;" parent="1" vertex="1">
          <mxGeometry x="347" y="800" width="134" height="80" as="geometry" />
        </mxCell>
        <mxCell id="BZHRP5bjnA7c6UVSAn7--53" value="i++" style="rounded=0;whiteSpace=wrap;html=1;" parent="1" vertex="1">
          <mxGeometry x="520" y="730" width="90" height="50" as="geometry" />
        </mxCell>
        <mxCell id="BZHRP5bjnA7c6UVSAn7--54" style="edgeStyle=orthogonalEdgeStyle;rounded=0;orthogonalLoop=1;jettySize=auto;html=1;entryX=1;entryY=0.5;entryDx=0;entryDy=0;entryPerimeter=0;" parent="1" source="BZHRP5bjnA7c6UVSAn7--53" target="BZHRP5bjnA7c6UVSAn7--28" edge="1">
          <mxGeometry relative="1" as="geometry">
            <Array as="points">
              <mxPoint x="565" y="715" />
            </Array>
          </mxGeometry>
        </mxCell>
        <mxCell id="BZHRP5bjnA7c6UVSAn7--55" value="False" style="text;html=1;align=center;verticalAlign=middle;resizable=0;points=[];autosize=1;strokeColor=none;fillColor=none;" parent="1" vertex="1">
          <mxGeometry x="304" y="690" width="50" height="30" as="geometry" />
        </mxCell>
        <mxCell id="lPn4dipSeCjGLX13TJ30-1" style="edgeStyle=orthogonalEdgeStyle;rounded=0;orthogonalLoop=1;jettySize=auto;html=1;" edge="1" parent="1" source="lPn4dipSeCjGLX13TJ30-2">
          <mxGeometry relative="1" as="geometry">
            <mxPoint x="1074" y="140.0000000000001" as="targetPoint" />
          </mxGeometry>
        </mxCell>
        <mxCell id="lPn4dipSeCjGLX13TJ30-2" value="Start" style="rounded=0;whiteSpace=wrap;html=1;" vertex="1" parent="1">
          <mxGeometry x="1014" y="30" width="120" height="60" as="geometry" />
        </mxCell>
        <mxCell id="lPn4dipSeCjGLX13TJ30-3" style="edgeStyle=orthogonalEdgeStyle;rounded=0;orthogonalLoop=1;jettySize=auto;html=1;" edge="1" parent="1" source="lPn4dipSeCjGLX13TJ30-4">
          <mxGeometry relative="1" as="geometry">
            <mxPoint x="1074" y="270" as="targetPoint" />
          </mxGeometry>
        </mxCell>
        <mxCell id="lPn4dipSeCjGLX13TJ30-28" style="edgeStyle=orthogonalEdgeStyle;rounded=0;orthogonalLoop=1;jettySize=auto;html=1;entryX=0;entryY=0.5;entryDx=0;entryDy=0;" edge="1" parent="1" source="lPn4dipSeCjGLX13TJ30-4" target="lPn4dipSeCjGLX13TJ30-27">
          <mxGeometry relative="1" as="geometry" />
        </mxCell>
        <mxCell id="lPn4dipSeCjGLX13TJ30-4" value="a == 0" style="strokeWidth=2;html=1;shape=mxgraph.flowchart.decision;whiteSpace=wrap;" vertex="1" parent="1">
          <mxGeometry x="1004" y="140" width="140" height="80" as="geometry" />
        </mxCell>
        <mxCell id="lPn4dipSeCjGLX13TJ30-5" style="edgeStyle=orthogonalEdgeStyle;rounded=0;orthogonalLoop=1;jettySize=auto;html=1;exitX=0.5;exitY=1;exitDx=0;exitDy=0;exitPerimeter=0;" edge="1" parent="1" source="lPn4dipSeCjGLX13TJ30-4" target="lPn4dipSeCjGLX13TJ30-4">
          <mxGeometry relative="1" as="geometry" />
        </mxCell>
        <mxCell id="lPn4dipSeCjGLX13TJ30-6" style="edgeStyle=orthogonalEdgeStyle;rounded=0;orthogonalLoop=1;jettySize=auto;html=1;" edge="1" parent="1" source="lPn4dipSeCjGLX13TJ30-8">
          <mxGeometry relative="1" as="geometry">
            <mxPoint x="1263.75" y="350" as="targetPoint" />
          </mxGeometry>
        </mxCell>
        <mxCell id="lPn4dipSeCjGLX13TJ30-7" style="edgeStyle=orthogonalEdgeStyle;rounded=0;orthogonalLoop=1;jettySize=auto;html=1;" edge="1" parent="1" source="lPn4dipSeCjGLX13TJ30-8">
          <mxGeometry relative="1" as="geometry">
            <mxPoint x="1073.75" y="560" as="targetPoint" />
          </mxGeometry>
        </mxCell>
        <mxCell id="lPn4dipSeCjGLX13TJ30-8" value="delta &amp;gt; 0" style="strokeWidth=2;html=1;shape=mxgraph.flowchart.decision;whiteSpace=wrap;" vertex="1" parent="1">
          <mxGeometry x="1022" y="270" width="104" height="70" as="geometry" />
        </mxCell>
        <mxCell id="lPn4dipSeCjGLX13TJ30-9" value="False" style="text;html=1;align=center;verticalAlign=middle;resizable=0;points=[];autosize=1;strokeColor=none;fillColor=none;" vertex="1" parent="1">
          <mxGeometry x="1153.75" y="280" width="50" height="30" as="geometry" />
        </mxCell>
        <mxCell id="lPn4dipSeCjGLX13TJ30-10" style="edgeStyle=orthogonalEdgeStyle;rounded=0;orthogonalLoop=1;jettySize=auto;html=1;entryX=0.5;entryY=0;entryDx=0;entryDy=0;entryPerimeter=0;" edge="1" parent="1" source="lPn4dipSeCjGLX13TJ30-12" target="lPn4dipSeCjGLX13TJ30-15">
          <mxGeometry relative="1" as="geometry">
            <mxPoint x="1423.75" y="430" as="targetPoint" />
          </mxGeometry>
        </mxCell>
        <mxCell id="lPn4dipSeCjGLX13TJ30-11" style="edgeStyle=orthogonalEdgeStyle;rounded=0;orthogonalLoop=1;jettySize=auto;html=1;" edge="1" parent="1" source="lPn4dipSeCjGLX13TJ30-12">
          <mxGeometry relative="1" as="geometry">
            <mxPoint x="1265.75" y="560" as="targetPoint" />
          </mxGeometry>
        </mxCell>
        <mxCell id="lPn4dipSeCjGLX13TJ30-12" value="delta == 0" style="strokeWidth=2;html=1;shape=mxgraph.flowchart.decision;whiteSpace=wrap;" vertex="1" parent="1">
          <mxGeometry x="1213.75" y="350" width="104" height="70" as="geometry" />
        </mxCell>
        <mxCell id="lPn4dipSeCjGLX13TJ30-13" value="False" style="text;html=1;align=center;verticalAlign=middle;resizable=0;points=[];autosize=1;strokeColor=none;fillColor=none;" vertex="1" parent="1">
          <mxGeometry x="1343.75" y="358" width="50" height="30" as="geometry" />
        </mxCell>
        <mxCell id="lPn4dipSeCjGLX13TJ30-14" style="edgeStyle=orthogonalEdgeStyle;rounded=0;orthogonalLoop=1;jettySize=auto;html=1;" edge="1" parent="1" source="lPn4dipSeCjGLX13TJ30-15">
          <mxGeometry relative="1" as="geometry">
            <mxPoint x="1425.75" y="560" as="targetPoint" />
          </mxGeometry>
        </mxCell>
        <mxCell id="lPn4dipSeCjGLX13TJ30-15" value="delta &amp;lt; 0" style="strokeWidth=2;html=1;shape=mxgraph.flowchart.decision;whiteSpace=wrap;" vertex="1" parent="1">
          <mxGeometry x="1373.75" y="440" width="104" height="70" as="geometry" />
        </mxCell>
        <mxCell id="lPn4dipSeCjGLX13TJ30-16" value="True" style="text;html=1;align=center;verticalAlign=middle;resizable=0;points=[];autosize=1;strokeColor=none;fillColor=none;" vertex="1" parent="1">
          <mxGeometry x="1063.75" y="438" width="50" height="30" as="geometry" />
        </mxCell>
        <mxCell id="lPn4dipSeCjGLX13TJ30-17" value="True" style="text;html=1;align=center;verticalAlign=middle;resizable=0;points=[];autosize=1;strokeColor=none;fillColor=none;" vertex="1" parent="1">
          <mxGeometry x="1253.75" y="460" width="50" height="30" as="geometry" />
        </mxCell>
        <mxCell id="lPn4dipSeCjGLX13TJ30-18" style="edgeStyle=orthogonalEdgeStyle;rounded=0;orthogonalLoop=1;jettySize=auto;html=1;" edge="1" parent="1" source="lPn4dipSeCjGLX13TJ30-19">
          <mxGeometry relative="1" as="geometry">
            <mxPoint x="1271.75" y="670" as="targetPoint" />
          </mxGeometry>
        </mxCell>
        <mxCell id="lPn4dipSeCjGLX13TJ30-19" value="statement" style="rounded=0;whiteSpace=wrap;html=1;" vertex="1" parent="1">
          <mxGeometry x="1239" y="563" width="64.75" height="40" as="geometry" />
        </mxCell>
        <mxCell id="lPn4dipSeCjGLX13TJ30-20" style="edgeStyle=orthogonalEdgeStyle;rounded=0;orthogonalLoop=1;jettySize=auto;html=1;" edge="1" parent="1" source="lPn4dipSeCjGLX13TJ30-21">
          <mxGeometry relative="1" as="geometry">
            <mxPoint x="1425.75" y="650" as="targetPoint" />
          </mxGeometry>
        </mxCell>
        <mxCell id="lPn4dipSeCjGLX13TJ30-21" value="statement" style="rounded=0;whiteSpace=wrap;html=1;" vertex="1" parent="1">
          <mxGeometry x="1393.75" y="563" width="64.75" height="40" as="geometry" />
        </mxCell>
        <mxCell id="lPn4dipSeCjGLX13TJ30-22" style="edgeStyle=orthogonalEdgeStyle;rounded=0;orthogonalLoop=1;jettySize=auto;html=1;" edge="1" parent="1">
          <mxGeometry relative="1" as="geometry">
            <mxPoint x="1413.75" y="664.47" as="targetPoint" />
            <mxPoint x="1073.75" y="664" as="sourcePoint" />
          </mxGeometry>
        </mxCell>
        <mxCell id="lPn4dipSeCjGLX13TJ30-23" style="edgeStyle=orthogonalEdgeStyle;rounded=0;orthogonalLoop=1;jettySize=auto;html=1;" edge="1" parent="1" source="lPn4dipSeCjGLX13TJ30-24">
          <mxGeometry relative="1" as="geometry">
            <mxPoint x="1073.75" y="670" as="targetPoint" />
          </mxGeometry>
        </mxCell>
        <mxCell id="lPn4dipSeCjGLX13TJ30-24" value="statement" style="rounded=0;whiteSpace=wrap;html=1;" vertex="1" parent="1">
          <mxGeometry x="1041.62" y="563" width="64.75" height="40" as="geometry" />
        </mxCell>
        <mxCell id="lPn4dipSeCjGLX13TJ30-25" value="" style="edgeStyle=none;orthogonalLoop=1;jettySize=auto;html=1;rounded=0;" edge="1" parent="1">
          <mxGeometry width="80" relative="1" as="geometry">
            <mxPoint x="1273.75" y="664.47" as="sourcePoint" />
            <mxPoint x="1353.75" y="664.47" as="targetPoint" />
            <Array as="points" />
          </mxGeometry>
        </mxCell>
        <mxCell id="lPn4dipSeCjGLX13TJ30-26" value="" style="ellipse;whiteSpace=wrap;html=1;aspect=fixed;" vertex="1" parent="1">
          <mxGeometry x="1410.75" y="650" width="30" height="30" as="geometry" />
        </mxCell>
        <mxCell id="lPn4dipSeCjGLX13TJ30-27" value="End" style="rounded=0;whiteSpace=wrap;html=1;" vertex="1" parent="1">
          <mxGeometry x="1273.75" y="150" width="120" height="60" as="geometry" />
        </mxCell>
      </root>
    </mxGraphModel>
  </diagram>
</mxfile>
